<svg width="111" height="111" viewBox="0 0 111 111" fill="none" xmlns="http://www.w3.org/2000/svg">
<rect width="111" height="111" rx="5" fill="#6ABC45"/>
<path d="M40.8319 29.757L39.3918 28.5257C39.46 28.108 39.4951 27.6814 39.4951 27.2549C39.4951 26.8284 39.46 26.4018 39.3918 25.9841L40.8319 24.7528C40.9405 24.6598 41.0183 24.536 41.0548 24.3977C41.0913 24.2595 41.0849 24.1134 41.0364 23.9789L41.0166 23.9217C40.6201 22.8137 40.0265 21.7865 39.2643 20.8898L39.2247 20.8436C39.1322 20.7349 39.009 20.6568 38.8712 20.6195C38.7335 20.5822 38.5877 20.5875 38.453 20.6348L36.6655 21.2702C36.0059 20.7293 35.2693 20.3028 34.4734 20.0037L34.1282 18.1349C34.1022 17.9943 34.034 17.8649 33.9327 17.764C33.8313 17.663 33.7017 17.5953 33.561 17.5698L33.5016 17.5588C32.3561 17.3522 31.1513 17.3522 30.0058 17.5588L29.9464 17.5698C29.8057 17.5953 29.676 17.663 29.5747 17.764C29.4734 17.8649 29.4052 17.9943 29.3791 18.1349L29.0318 20.0125C28.2422 20.3116 27.5069 20.7379 26.8551 21.2746L25.0544 20.6348C24.9198 20.5871 24.7738 20.5816 24.636 20.6189C24.4981 20.6562 24.3749 20.7346 24.2827 20.8436L24.2431 20.8898C23.4818 21.7871 22.8882 22.8141 22.4908 23.9217L22.471 23.9789C22.372 24.2537 22.4534 24.5615 22.6755 24.7528L24.1332 25.9973C24.065 26.4106 24.032 26.8328 24.032 27.2527C24.032 27.6748 24.065 28.097 24.1332 28.5081L22.6755 29.7526C22.5668 29.8456 22.4891 29.9694 22.4526 30.1077C22.416 30.2459 22.4225 30.392 22.471 30.5265L22.4908 30.5837C22.8887 31.6918 23.478 32.7141 24.2431 33.6156L24.2827 33.6618C24.3751 33.7705 24.4984 33.8486 24.6361 33.8859C24.7739 33.9232 24.9197 33.9179 25.0544 33.8706L26.8551 33.2308C27.5103 33.7695 28.2424 34.196 29.0318 34.4929L29.3791 36.3705C29.4052 36.5111 29.4734 36.6405 29.5747 36.7414C29.676 36.8424 29.8057 36.9101 29.9464 36.9356L30.0058 36.9466C31.1618 37.1543 32.3456 37.1543 33.5016 36.9466L33.561 36.9356C33.7017 36.9101 33.8313 36.8424 33.9327 36.7414C34.034 36.6405 34.1022 36.5111 34.1282 36.3705L34.4734 34.5017C35.269 34.2034 36.0097 33.7755 36.6655 33.2352L38.453 33.8706C38.5876 33.9183 38.7335 33.9238 38.8714 33.8865C39.0092 33.8492 39.1325 33.7708 39.2247 33.6618L39.2643 33.6156C40.0294 32.712 40.6186 31.6918 41.0166 30.5837L41.0364 30.5265C41.1353 30.2561 41.054 29.9482 40.8319 29.757V29.757ZM37.8308 26.2435C37.8857 26.5755 37.9143 26.9163 37.9143 27.2571C37.9143 27.5979 37.8857 27.9387 37.8308 28.2707L37.6856 29.1523L39.328 30.5573C39.0791 31.1309 38.7648 31.6739 38.3914 32.1755L36.3511 31.4521L35.6607 32.0194C35.1352 32.4503 34.5504 32.7889 33.9172 33.0264L33.0795 33.3408L32.6859 35.4735C32.0649 35.5438 31.438 35.5438 30.8171 35.4735L30.4235 33.3364L29.5924 33.0176C28.9658 32.7801 28.3832 32.4415 27.8621 32.0128L27.1717 31.4433L25.1182 32.1733C24.7444 31.6698 24.4322 31.1267 24.1815 30.5551L25.8415 29.1369L25.6986 28.2575C25.6458 27.9299 25.6172 27.5913 25.6172 27.2571C25.6172 26.9207 25.6436 26.5843 25.6986 26.2567L25.8415 25.3772L24.1815 23.9591C24.43 23.3853 24.7444 22.8444 25.1182 22.3409L27.1717 23.0709L27.8621 22.5014C28.3832 22.0727 28.9658 21.7341 29.5924 21.4966L30.4257 21.1822L30.8193 19.0451C31.4371 18.9748 32.0681 18.9748 32.6881 19.0451L33.0817 21.1778L33.9194 21.4922C34.5504 21.7297 35.1374 22.0683 35.6629 22.4992L36.3533 23.0665L38.3936 22.3431C38.7674 22.8466 39.0796 23.3897 39.3302 23.9613L37.6878 25.3663L37.8308 26.2435ZM31.7559 23.1676C29.6188 23.1676 27.8863 24.9001 27.8863 27.0372C27.8863 29.1743 29.6188 30.9069 31.7559 30.9069C33.893 30.9069 35.6255 29.1743 35.6255 27.0372C35.6255 24.9001 33.893 23.1676 31.7559 23.1676ZM33.4972 28.7786C33.2688 29.0076 32.9974 29.1892 32.6986 29.313C32.3997 29.4368 32.0793 29.5002 31.7559 29.4997C31.0985 29.4997 30.4807 29.2425 30.0146 28.7786C29.7855 28.5502 29.6039 28.2787 29.4801 27.9799C29.3563 27.6811 29.2929 27.3607 29.2934 27.0372C29.2934 26.3798 29.5506 25.762 30.0146 25.2959C30.4807 24.8298 31.0985 24.5747 31.7559 24.5747C32.4133 24.5747 33.0311 24.8298 33.4972 25.2959C33.7263 25.5243 33.9079 25.7957 34.0317 26.0946C34.1554 26.3934 34.2189 26.7138 34.2184 27.0372C34.2184 27.6946 33.9611 28.3124 33.4972 28.7786Z" fill="white"/>
<path d="M87.3615 29.757L85.9213 28.5257C85.9895 28.108 86.0247 27.6814 86.0247 27.2549C86.0247 26.8284 85.9895 26.4018 85.9213 25.9841L87.3615 24.7528C87.4701 24.6598 87.5478 24.536 87.5843 24.3977C87.6209 24.2595 87.6145 24.1134 87.5659 23.9789L87.5461 23.9217C87.1497 22.8137 86.556 21.7865 85.7938 20.8898L85.7542 20.8436C85.6618 20.7349 85.5385 20.6568 85.4008 20.6195C85.263 20.5822 85.1172 20.5875 84.9825 20.6348L83.195 21.2702C82.5354 20.7293 81.7989 20.3028 81.003 20.0037L80.6578 18.1349C80.6317 17.9943 80.5635 17.8649 80.4622 17.764C80.3609 17.663 80.2312 17.5953 80.0905 17.5698L80.0312 17.5588C78.8857 17.3522 77.6808 17.3522 76.5353 17.5588L76.4759 17.5698C76.3352 17.5953 76.2056 17.663 76.1043 17.764C76.0029 17.8649 75.9347 17.9943 75.9087 18.1349L75.5613 20.0125C74.7717 20.3116 74.0365 20.7379 73.3846 21.2746L71.5839 20.6348C71.4493 20.5871 71.3034 20.5816 71.1655 20.6189C71.0277 20.6562 70.9044 20.7346 70.8122 20.8436L70.7726 20.8898C70.0113 21.7871 69.4178 22.8141 69.0203 23.9217L69.0005 23.9789C68.9016 24.2537 68.9829 24.5615 69.205 24.7528L70.6627 25.9973C70.5945 26.4106 70.5616 26.8328 70.5616 27.2527C70.5616 27.6748 70.5945 28.097 70.6627 28.5081L69.205 29.7526C69.0964 29.8456 69.0186 29.9694 68.9821 30.1077C68.9456 30.2459 68.952 30.392 69.0005 30.5265L69.0203 30.5837C69.4183 31.6918 70.0075 32.7141 70.7726 33.6156L70.8122 33.6618C70.9047 33.7705 71.0279 33.8486 71.1657 33.8859C71.3034 33.9232 71.4493 33.9179 71.5839 33.8706L73.3846 33.2308C74.0398 33.7695 74.772 34.196 75.5613 34.4929L75.9087 36.3705C75.9347 36.5111 76.0029 36.6405 76.1043 36.7414C76.2056 36.8424 76.3352 36.9101 76.4759 36.9356L76.5353 36.9466C77.6913 37.1543 78.8751 37.1543 80.0312 36.9466L80.0905 36.9356C80.2312 36.9101 80.3609 36.8424 80.4622 36.7414C80.5635 36.6405 80.6317 36.5111 80.6578 36.3705L81.003 34.5017C81.7985 34.2034 82.5393 33.7755 83.195 33.2352L84.9825 33.8706C85.1171 33.9183 85.2631 33.9238 85.4009 33.8865C85.5388 33.8492 85.662 33.7708 85.7542 33.6618L85.7938 33.6156C86.559 32.712 87.1482 31.6918 87.5461 30.5837L87.5659 30.5265C87.6649 30.2561 87.5835 29.9482 87.3615 29.757V29.757ZM84.3603 26.2435C84.4153 26.5755 84.4438 26.9163 84.4438 27.2571C84.4438 27.5979 84.4153 27.9387 84.3603 28.2707L84.2152 29.1523L85.8576 30.5573C85.6086 31.1309 85.2943 31.6739 84.921 32.1755L82.8806 31.4521L82.1902 32.0194C81.6648 32.4503 81.0799 32.7889 80.4467 33.0264L79.609 33.3408L79.2155 35.4735C78.5945 35.5438 77.9676 35.5438 77.3466 35.4735L76.953 33.3364L76.122 33.0176C75.4953 32.7801 74.9127 32.4415 74.3916 32.0128L73.7012 31.4433L71.6477 32.1733C71.2739 31.6698 70.9617 31.1267 70.7111 30.5551L72.3711 29.1369L72.2281 28.2575C72.1754 27.9299 72.1468 27.5913 72.1468 27.2571C72.1468 26.9207 72.1732 26.5843 72.2281 26.2567L72.3711 25.3772L70.7111 23.9591C70.9595 23.3853 71.2739 22.8444 71.6477 22.3409L73.7012 23.0709L74.3916 22.5014C74.9127 22.0727 75.4953 21.7341 76.122 21.4966L76.9552 21.1822L77.3488 19.0451C77.9666 18.9748 78.5976 18.9748 79.2177 19.0451L79.6112 21.1778L80.4489 21.4922C81.0799 21.7297 81.667 22.0683 82.1924 22.4992L82.8828 23.0665L84.9232 22.3431C85.2969 22.8466 85.6091 23.3897 85.8598 23.9613L84.2174 25.3663L84.3603 26.2435ZM78.2854 23.1676C76.1483 23.1676 74.4158 24.9001 74.4158 27.0372C74.4158 29.1743 76.1483 30.9069 78.2854 30.9069C80.4225 30.9069 82.1551 29.1743 82.1551 27.0372C82.1551 24.9001 80.4225 23.1676 78.2854 23.1676ZM80.0268 28.7786C79.7984 29.0076 79.5269 29.1892 79.2281 29.313C78.9293 29.4368 78.6089 29.5002 78.2854 29.4997C77.628 29.4997 77.0102 29.2425 76.5441 28.7786C76.315 28.5502 76.1334 28.2787 76.0097 27.9799C75.8859 27.6811 75.8224 27.3607 75.8229 27.0372C75.8229 26.3798 76.0802 25.762 76.5441 25.2959C77.0102 24.8298 77.628 24.5747 78.2854 24.5747C78.9428 24.5747 79.5606 24.8298 80.0268 25.2959C80.2558 25.5243 80.4374 25.7957 80.5612 26.0946C80.685 26.3934 80.7484 26.7138 80.7479 27.0372C80.7479 27.6946 80.4907 28.3124 80.0268 28.7786Z" fill="white"/>
<path d="M77.235 56.0753L73.0324 54.7244L72.1318 52.473L74.2331 48.5705C74.6834 47.67 74.5333 46.4692 73.7828 45.7187L70.1806 42.1165C69.4301 41.366 68.2293 41.2159 67.3288 41.6662L63.4263 43.7675L61.1749 42.8669L59.824 38.6643C59.5238 37.7637 58.6233 37.0132 57.5726 37.0132H52.4694C51.4187 37.0132 50.5182 37.7637 50.3681 38.8144L49.0172 43.017C48.1166 43.1671 47.3662 43.4673 46.6157 43.9176L42.7132 41.8163C41.8127 41.366 40.6119 41.5161 39.8614 42.2666L36.2592 45.8688C35.5087 46.6193 35.3586 47.8201 35.8089 48.7206L37.7601 52.473C37.4599 53.2235 37.1597 54.124 36.8596 54.8745L32.6569 56.2254C31.7563 56.5255 31.0059 57.4261 31.0059 58.4768V63.58C31.0059 64.6307 31.7563 65.5312 32.807 65.8314L37.0096 67.1823L37.9102 69.4337L35.8089 73.3361C35.3586 74.2367 35.5087 75.4375 36.2592 76.1879L39.8614 79.7902C40.6119 80.5407 41.8127 80.6908 42.7132 80.2405L46.6157 78.1392L48.8671 79.0397L50.218 83.3925C50.5182 84.2931 51.4187 85.0435 52.4694 85.0435H57.5726C58.6233 85.0435 59.5238 84.2931 59.824 83.3925L61.1749 79.0397L63.4263 78.1392L67.3288 80.2405C68.2293 80.6908 69.4301 80.5407 70.1806 79.7902L73.7828 76.1879C74.5333 75.4375 74.6834 74.2367 74.2331 73.3361L72.1318 69.4337L73.0324 67.1823L77.3851 65.8314C78.2857 65.5312 79.0361 64.6307 79.0361 63.58V58.4768C79.0361 57.4261 78.2857 56.3755 77.235 56.0753V56.0753ZM76.0342 63.1297L70.6308 64.7808L70.4807 65.5312L69.1299 68.6832L68.6796 69.4337L71.3813 74.3868L68.3794 77.3887L63.4263 74.687L62.6758 75.1373C61.6252 75.7377 60.5745 76.1879 59.5238 76.4881L58.7734 76.6382L57.1223 82.0416H52.9197L51.2686 76.6382L50.5182 76.4881L47.3662 75.1373L46.6157 74.687L41.6626 77.3887L38.6607 74.3868L41.3624 69.4337L40.9121 68.6832C40.3117 67.6325 39.8614 66.5819 39.5613 65.5312L39.4112 64.7808L34.0078 63.1297V58.9271L39.111 57.4261L39.4112 56.6756C39.7113 55.4749 40.1616 54.4242 40.762 53.3736L41.2123 52.6231L38.6607 47.67L41.6626 44.6681L46.4656 47.3698L47.2161 46.9195C48.2667 46.3191 49.3174 45.8688 50.5182 45.5686L51.2686 45.2684L52.9197 40.0151H57.1223L58.7734 45.2684L59.5238 45.5686C60.5745 45.8688 61.6252 46.3191 62.6758 46.9195L63.4263 47.3698L68.3794 44.6681L71.3813 47.67L68.6796 52.6231L69.1299 53.3736C69.7303 54.4242 70.1806 55.4749 70.4807 56.5255L70.6308 57.276L76.0342 58.9271V63.1297V63.1297Z" fill="white"/>
<path d="M46.7219 66.7214C47.1737 65.7104 47.8293 64.792 48.6523 64.0175C49.4728 63.2407 50.4448 62.6214 51.5145 62.1937C51.5241 62.1892 51.5337 62.1869 51.5432 62.1824C50.0511 61.1641 49.0811 59.5056 49.0811 57.6343C49.0811 54.5343 51.7396 52.0227 55.0209 52.0227C58.3022 52.0227 60.9608 54.5343 60.9608 57.6343C60.9608 59.5056 59.9908 61.1641 58.4986 62.1846C58.5082 62.1892 58.5178 62.1914 58.5274 62.196C59.6004 62.6236 60.5632 63.2368 61.3895 64.0197C62.2118 64.7949 62.8673 65.7131 63.32 66.7237C63.7647 67.7131 64.0046 68.7738 64.0266 69.8485C64.0272 69.8727 64.0227 69.8967 64.0134 69.9192C64.004 69.9417 63.99 69.9622 63.9722 69.9795C63.9543 69.9967 63.933 70.0105 63.9094 70.0199C63.8858 70.0292 63.8605 70.0341 63.8349 70.0341H62.3979C62.2925 70.0341 62.2087 69.9549 62.2063 69.8576C62.1584 68.1107 61.4159 66.4748 60.1034 65.2348C58.7453 63.9518 56.9418 63.2459 55.0209 63.2459C53.1001 63.2459 51.2965 63.9518 49.9385 65.2348C48.626 66.4748 47.8835 68.1107 47.8356 69.8576C47.8332 69.9571 47.7494 70.0341 47.644 70.0341H46.2069C46.1814 70.0341 46.156 70.0292 46.1325 70.0199C46.1089 70.0105 46.0876 69.9967 46.0697 69.9795C46.0519 69.9622 46.0378 69.9417 46.0285 69.9192C46.0192 69.8967 46.0147 69.8727 46.0153 69.8485C46.0393 68.7669 46.2764 67.7148 46.7219 66.7214V66.7214ZM55.0209 61.5262C56.1203 61.5262 57.155 61.1212 57.9334 60.3858C58.7118 59.6504 59.1405 58.6729 59.1405 57.6343C59.1405 56.5957 58.7118 55.6182 57.9334 54.8828C57.155 54.1474 56.1203 53.7424 55.0209 53.7424C53.9216 53.7424 52.8869 54.1474 52.1085 54.8828C51.3301 55.6182 50.9013 56.5957 50.9013 57.6343C50.9013 58.6729 51.3301 59.6504 52.1085 60.3858C52.8869 61.1212 53.9216 61.5262 55.0209 61.5262Z" fill="white"/>
<path fill-rule="evenodd" clip-rule="evenodd" d="M86.4741 45.6109C86.0291 46.2077 85.5671 46.791 85.0889 47.3602C86.9852 51.5253 88.0416 56.1535 88.0416 61.0284C88.0416 79.2653 73.2577 94.0492 55.0208 94.0492C36.7839 94.0492 22 79.2653 22 61.0284C22 55.6935 23.2652 50.654 25.5118 46.1938C25.0563 45.6066 24.6175 45.0058 24.1961 44.392C21.5196 49.3409 20 55.0072 20 61.0284C20 80.3698 35.6794 96.0492 55.0208 96.0492C74.3623 96.0492 90.0416 80.3698 90.0416 61.0284C90.0416 55.4958 88.7587 50.2629 86.4741 45.6109Z" fill="white"/>
<circle cx="25.0016" cy="43.017" r="4.50284" fill="white"/>
<circle cx="85.0397" cy="43.017" r="4.50284" fill="white"/>
<line x1="48.2659" y1="18.251" x2="48.2659" y2="27.2576" stroke="white" stroke-width="1.5" stroke-linecap="round"/>
<line x1="60.2739" y1="18.251" x2="60.2739" y2="27.2576" stroke="white" stroke-width="1.5" stroke-linecap="round"/>
<line x1="54.2698" y1="19.7519" x2="54.2698" y2="28.7585" stroke="white" stroke-width="1.5" stroke-linecap="round"/>
</svg>
