<svg width="111" height="111" viewBox="0 0 111 111" fill="none" xmlns="http://www.w3.org/2000/svg">
<rect width="111" height="111" rx="5" fill="#6ABC45"/>
<circle cx="55" cy="56" r="36.5" stroke="white" stroke-width="3"/>
<path fill-rule="evenodd" clip-rule="evenodd" d="M49.1925 31.5528C48.7536 31.905 48.4478 32.3963 48.3257 32.9457L48.3232 32.9506L47.2346 37.8491C46.2475 38.3192 45.3049 38.8634 44.4143 39.4819L39.6222 37.9728C39.0853 37.804 38.5069 37.8233 37.9825 38.0275C37.458 38.2317 37.0189 38.6086 36.7375 39.096L31.7896 47.6658C31.5081 48.1533 31.4012 48.7222 31.4867 49.2786C31.5721 49.835 31.8448 50.3456 32.2596 50.7262L35.9632 54.1205C35.8748 55.2039 35.8748 56.2928 35.9632 57.3762L32.2596 60.773C31.8448 61.1535 31.5721 61.6641 31.4867 62.2205C31.4012 62.7769 31.5081 63.3458 31.7896 63.8333L36.7375 72.4032C37.0189 72.8906 37.458 73.2675 37.9825 73.4717C38.5069 73.6759 39.0853 73.6952 39.6222 73.5264L44.4168 72.0172C45.3049 72.6357 46.2475 73.18 47.2371 73.6501L48.3257 78.551C48.4478 79.1004 48.7536 79.5917 49.1925 79.9439C49.6315 80.2961 50.1775 80.488 50.7403 80.4881H60.6362C61.1997 80.4885 61.7465 80.2964 62.1861 79.9437C62.6256 79.591 62.9315 79.0988 63.0533 78.5485L64.1418 73.6501C65.1289 73.18 66.0715 72.6357 66.9621 72.0172L71.7542 73.5264C72.2911 73.6952 72.8695 73.6759 73.3939 73.4717C73.9184 73.2675 74.3575 72.8906 74.6389 72.4032L79.5869 63.8333C79.8684 63.3458 79.9752 62.7769 79.8897 62.2205C79.8043 61.6641 79.5316 61.1535 79.1168 60.773L75.4133 57.3762C75.5016 56.2928 75.5016 55.2039 75.4133 54.1205L79.1168 50.7237C79.5316 50.3432 79.8043 49.8326 79.8897 49.2762C79.9752 48.7198 79.8684 48.1509 79.5869 47.6634L74.6389 39.0935C74.3575 38.6061 73.9184 38.2292 73.3939 38.025C72.8695 37.8208 72.2911 37.8015 71.7542 37.9703L66.9597 39.4795C66.0715 38.861 65.1289 38.3167 64.1393 37.8466L63.0508 32.9457C62.9287 32.3963 62.6229 31.905 62.1839 31.5528C61.7449 31.2006 61.199 31.0086 60.6362 31.0085H50.7403C50.1775 31.0086 49.6315 31.2006 49.1925 31.5528ZM55.073 70.1424C62.8984 70.1424 69.2421 63.7986 69.2421 55.9732C69.2421 48.1478 62.8984 41.8041 55.073 41.8041C47.2476 41.8041 40.9038 48.1478 40.9038 55.9732C40.9038 63.7986 47.2476 70.1424 55.073 70.1424Z" fill="white"/>
<path d="M48.2041 56.3524L52.7347 61.2857L61.7959 50.7143" stroke="white" stroke-width="2.5" stroke-linecap="round" stroke-linejoin="round"/>
</svg>
