<svg width="114" height="111" viewBox="0 0 114 111" fill="none" xmlns="http://www.w3.org/2000/svg">
<rect width="111" height="111" rx="5" fill="#4666AF"/>
<g clip-path="url(#clip0_2_4)">
<path d="M57.2712 62.2053V62.7355L57.7101 63.033L70.0463 71.3965L70.0587 71.4049L70.0713 71.4129C70.7558 71.8477 71.5837 71.996 72.3765 71.826C73.1694 71.656 73.8637 71.1812 74.3097 70.5041C74.7558 69.8269 74.9178 69.0015 74.761 68.206C74.6041 67.4104 74.1409 66.7084 73.4713 66.2511L73.4686 66.2493L63.453 59.4588V43.9728C63.453 43.153 63.1274 42.3668 62.5477 41.7872C61.9681 41.2075 61.1819 40.8819 60.3621 40.8819C59.5424 40.8819 58.7562 41.2075 58.1765 41.7872C57.5969 42.3668 57.2712 43.153 57.2712 43.9728V62.2053Z" stroke="white" stroke-width="2"/>
<path d="M45.1844 87.4265L45.6845 86.5605L45.1815 87.4248C39.8656 84.3308 35.4693 79.8773 32.4444 74.5218C30.0004 70.1949 28.5227 65.4052 28.0951 60.4815L24.5454 66.6299C24.1355 67.3399 23.4604 67.8579 22.6685 68.07C21.8767 68.2822 21.0331 68.1711 20.3231 67.7613C19.6132 67.3514 19.0952 66.6763 18.883 65.8845C18.6708 65.0926 18.7819 64.249 19.1918 63.539L28.3917 47.6044L28.8917 46.7384L29.7577 47.2384L45.6924 56.4382C46.4023 56.8481 46.9203 57.5232 47.1325 58.315C47.3446 59.1069 47.2336 59.9505 46.8237 60.6605C46.4138 61.3704 45.7387 61.8884 44.9469 62.1006C44.1551 62.3128 43.3114 62.2017 42.6015 61.7918L34.145 56.9095C34.0133 62.2985 35.4254 67.6254 38.2311 72.2544C41.3144 77.3412 45.9234 81.326 51.4024 83.6417C56.8815 85.9574 62.9513 86.486 68.7481 85.1523C74.545 83.8186 79.7735 80.6905 83.6896 76.2132C87.6057 71.7359 90.0099 66.1376 90.5601 60.2148C91.1103 54.292 89.7784 48.3466 86.7539 43.2246C83.7295 38.1026 79.1666 34.065 73.7147 31.6863C68.2627 29.3077 62.1993 28.7092 56.3875 29.9761C55.991 30.0629 55.5813 30.0708 55.1817 29.9994C54.7817 29.9279 54.3997 29.7784 54.0574 29.5593C53.7152 29.3402 53.4195 29.0558 53.1872 28.7224C52.9549 28.389 52.7905 28.0132 52.7035 27.6163C52.6164 27.2193 52.6084 26.8092 52.6799 26.4092C52.7514 26.0092 52.9009 25.6271 53.12 25.2849C53.3391 24.9427 53.6235 24.647 53.9569 24.4147C54.2903 24.1824 54.6661 24.018 55.0631 23.931L55.0639 23.9308C60.5331 22.7361 66.211 22.8922 71.6063 24.3853C77.0016 25.8785 81.9519 28.6639 86.0287 32.5004C90.1055 36.337 93.186 41.1091 95.0037 46.4039C96.8214 51.6988 97.3216 57.3568 96.4609 62.8883C95.6002 68.4199 93.4046 73.6585 90.0641 78.1507C86.7236 82.6429 82.3388 86.2535 77.289 88.67C72.2393 91.0865 66.6768 92.2362 61.0829 92.0195C55.4889 91.8028 50.032 90.2264 45.1844 87.4265Z" stroke="white" stroke-width="2"/>
</g>
<circle cx="42.548" cy="35.6341" r="4.89538" stroke="white" stroke-width="1.5"/>
<circle cx="42.5481" cy="35.6342" r="8.65897" stroke="white" stroke-width="1.5"/>
<circle cx="22.2667" cy="35.6341" r="4.89538" stroke="white" stroke-width="1.5"/>
<circle cx="22.2667" cy="35.6342" r="8.65897" stroke="white" stroke-width="1.5"/>
<defs>
<clipPath id="clip0_2_4">
<rect width="75.2717" height="75.2717" fill="white" transform="matrix(0.866025 0.5 0.5 -0.866025 11 71.3641)"/>
</clipPath>
</defs>
</svg>
