<svg width="111" height="111" viewBox="0 0 111 111" fill="none" xmlns="http://www.w3.org/2000/svg">
<rect width="111" height="111" rx="5" fill="#6ABC45"/>
<path d="M16 95.0806V80.7072C16 79.6805 16.8213 77.6272 20.1067 77.6272C23.3921 77.6272 33.1112 77.6272 37.5602 77.6272C40.6402 77.6271 39.2028 79.6805 41.6669 79.6805C44.1309 79.6805 46.8002 79.6805 47.8269 79.6805C49.8803 79.6805 49.5401 78.5384 50.9069 77.6272C53.987 75.5738 57.067 85.8406 38.5868 84.8139H36.5335V95.0806" stroke="white" stroke-width="3"/>
<circle cx="29.3466" cy="70.4404" r="4.66005" stroke="white" stroke-width="3"/>
<path d="M22.1602 84.8139V95.0806" stroke="white" stroke-width="3"/>
<path d="M95.3286 56.067V41.6936C95.3286 40.6669 94.5073 38.6135 91.2219 38.6135C87.9366 38.6135 78.2174 38.6135 73.7685 38.6135C70.6884 38.6135 72.1258 40.6669 69.6618 40.6669C67.1977 40.6669 64.5284 40.6669 63.5017 40.6669C61.4484 40.6669 61.7885 39.5247 60.4217 38.6135C57.3417 36.5602 54.2616 46.8269 72.7418 45.8003H74.7951V56.067" stroke="white" stroke-width="3"/>
<circle r="4.66005" transform="matrix(-1 0 0 1 81.982 31.4268)" stroke="white" stroke-width="3"/>
<path d="M88.894 45.8002V56.067" stroke="white" stroke-width="3"/>
<path d="M24.2134 54.0136C24.5556 43.4047 31.4001 22.8027 56.0403 25.2667" stroke="white" stroke-width="3" stroke-linecap="round"/>
<path d="M59.1201 28.8357C59.3101 30.9751 61.0618 32.4932 63.7286 32.6896V34.2501H65.0671V32.6896C67.9803 32.4599 69.7873 30.8442 69.7873 28.4546C69.7873 26.4141 68.5719 25.2334 65.9937 24.5686L65.0671 24.3286V19.4493C66.507 19.5905 67.4785 20.3657 67.7237 21.5232H69.6102C69.3971 19.4699 67.6338 17.9966 65.0671 17.8336V16.2833H63.7286V17.8657C61.2402 18.1609 59.5321 19.7548 59.5321 21.9159C59.5321 23.7819 60.7718 25.1025 62.947 25.6594L63.7299 25.8673V31.0405C62.2553 30.8223 61.2402 30.0138 60.9951 28.8357H59.1201V28.8357ZM63.4719 23.9128C62.1334 23.5753 61.4186 22.8541 61.4186 21.8389C61.4186 20.6275 62.3221 19.733 63.7286 19.493V23.9783L63.4719 23.9141V23.9128ZM65.5137 26.3152C67.1654 26.7298 67.8905 27.4176 67.8905 28.5855C67.8905 29.9933 66.8304 30.9314 65.0671 31.0739V26.2036L65.5137 26.314V26.3152Z" fill="white"/>
<path d="M41.667 61.2003L47.827 65.307M41.667 61.2003V69.4137L47.827 73.5204M41.667 61.2003L47.827 56.067L53.9871 61.2003M47.827 65.307L53.9871 61.2003M47.827 65.307V73.5204M53.9871 61.2003V69.4137L47.827 73.5204" stroke="white" stroke-width="3"/>
<path d="M58.0938 86.8672C66.3071 86.1828 83.5553 80.0912 86.8406 61.2004" stroke="white" stroke-width="3" stroke-linecap="round"/>
</svg>
