<svg width="111" height="111" viewBox="0 0 111 111" fill="none" xmlns="http://www.w3.org/2000/svg">
<rect x="-0.00012207" width="111" height="111" rx="5" fill="#4666AF"/>
<g clip-path="url(#clip0_2_198)">
<path d="M48.0271 61.4376L49.9117 58.8826L43.845 53.617L49.9117 48.3515L48.0271 45.7964L40.489 52.3395C40.3124 52.4927 40.1698 52.6871 40.0718 52.9083C39.9739 53.1294 39.923 53.3716 39.923 53.617C39.923 53.8624 39.9739 54.1046 40.0718 54.3258C40.1698 54.5469 40.3124 54.7413 40.489 54.8946L48.0271 61.4376ZM61.9726 45.7964L60.0881 48.3515L66.1548 53.617L60.0881 58.8826L61.9726 61.4376L69.5108 54.8946C69.6874 54.7413 69.83 54.5469 69.928 54.3258C70.0259 54.1046 70.0768 53.8624 70.0768 53.617C70.0768 53.3716 70.0259 53.1294 69.928 52.9083C69.83 52.6871 69.6874 52.4927 69.5108 52.3395L61.9726 45.7964ZM59.4866 39.2484L53.4561 68.6923L50.5117 67.9824L56.5422 38.5385L59.4866 39.2484Z" fill="white"/>
</g>
<path fill-rule="evenodd" clip-rule="evenodd" d="M37.5 85.9231H72.5V83.5H65.5V80H86.5C88.3565 80 90.137 79.2625 91.4497 77.9497C92.7625 76.637 93.5 74.8565 93.5 73V34.5C93.5 32.6435 92.7625 30.863 91.4497 29.5503C90.137 28.2375 88.3565 27.5 86.5 27.5H23.5C21.6435 27.5 19.863 28.2375 18.5503 29.5503C17.2375 30.863 16.5 32.6435 16.5 34.5V73C16.5 74.8565 17.2375 76.637 18.5503 77.9497C19.863 79.2625 21.6435 80 23.5 80H44.5V83.5H37.5V85.9231ZM19.4615 34.9231C19.4615 32.1617 21.7001 29.9231 24.4615 29.9231H85.5385C88.2999 29.9231 90.5385 32.1617 90.5385 34.9231V72.3077C90.5385 75.0691 88.2999 77.3077 85.5385 77.3077H24.4615C21.7001 77.3077 19.4615 75.0691 19.4615 72.3077V34.9231Z" fill="white"/>
<defs>
<clipPath id="clip0_2_198">
<rect width="30.1538" height="30.1538" fill="white" transform="translate(39.923 38.5385)"/>
</clipPath>
</defs>
</svg>
