<svg width="111" height="111" viewBox="0 0 111 111" fill="none" xmlns="http://www.w3.org/2000/svg">
<rect width="111" height="111" rx="5" fill="#6ABC45"/>
<g clip-path="url(#clip0_335_83)">
<path d="M34.3564 33.098H41.8933V40.6348H34.3564V33.098Z" fill="white"/>
<path d="M49.4303 25.5611V48.1716H26.8198V25.5611H49.4303ZM45.6619 29.3295H30.5882V44.4032H45.6619V29.3295ZM41.8935 70.7821H34.3567V78.3189H41.8935V70.7821Z" fill="white"/>
<path d="M49.4303 63.2453V85.8558H26.8198V63.2453H49.4303ZM30.5882 67.0137V82.0873H45.6619V67.0137H30.5882ZM72.0408 33.098H79.5776V40.6348H72.0408V33.098Z" fill="white"/>
<path d="M64.504 25.5611V48.1716H87.1145V25.5611H64.504ZM83.346 29.3295V44.4032H68.2724V29.3295H83.346ZM56.9671 29.3295V25.5611H60.7356V33.098H56.9671V40.6348H53.1987V29.3295H56.9671ZM56.9671 48.1716V40.6348H60.7356V48.1716H56.9671ZM49.4303 55.7084V51.94H53.1987V48.1716H56.9671V55.7084H60.7356V51.94H79.5776V55.7084H64.504V59.4769H53.1987V55.7084H49.4303ZM49.4303 55.7084V59.4769H34.3567V55.7084H30.5882V59.4769H26.8198V51.94H38.1251V55.7084H49.4303ZM87.1145 59.4769H83.346V51.94H87.1145V59.4769ZM83.346 59.4769H79.5776V67.0137H87.1145V63.2453H83.346V59.4769ZM68.2724 59.4769H75.8092V63.2453H72.0408V67.0137H68.2724V59.4769ZM75.8092 70.7821V67.0137H72.0408V70.7821H68.2724V74.5505H60.7356V78.3189H72.0408V70.7821H75.8092ZM75.8092 70.7821H87.1145V74.5505H79.5776V78.3189H75.8092V70.7821ZM60.7356 67.0137V70.7821H64.504V63.2453H53.1987V67.0137H60.7356Z" fill="white"/>
<path d="M53.1987 70.7821H56.9671V82.0873H72.0408V85.8558H53.1987V70.7821ZM87.1145 78.3189V85.8558H75.8092V82.0873H83.346V78.3189H87.1145Z" fill="white"/>
</g>
<path d="M21 81.8462V92H31.1538" stroke="white" stroke-width="2" stroke-linecap="round" stroke-linejoin="round"/>
<path d="M93 29.2308L93 20L83.7692 20" stroke="white" stroke-width="2" stroke-linecap="round" stroke-linejoin="round"/>
<path d="M31.1538 20L21 20L21 29.2308" stroke="white" stroke-width="2" stroke-linecap="round" stroke-linejoin="round"/>
<path d="M83.769 92L92.9998 92L92.9998 81.8462" stroke="white" stroke-width="2" stroke-linecap="round" stroke-linejoin="round"/>
<defs>
<clipPath id="clip0_335_83">
<rect width="60.2946" height="60.2946" fill="white" transform="translate(26.8198 25.5611)"/>
</clipPath>
</defs>
</svg>
