<svg width="111" height="111" viewBox="0 0 111 111" fill="none" xmlns="http://www.w3.org/2000/svg">
<rect x="-0.00012207" width="111" height="111" rx="5" fill="#4666AF"/>
<g clip-path="url(#clip0_2_227)">
<path fill-rule="evenodd" clip-rule="evenodd" d="M82.9999 26H28.9999C24.0218 26 19.9999 30.0219 19.9999 35V71C19.9999 75.9781 24.0218 80 28.9999 80H48.9285L64.9999 93.5V80H82.9999C87.978 80 91.9999 75.9781 91.9999 71V35C91.9999 30.0219 87.978 26 82.9999 26ZM37.9999 56.8571C40.8402 56.8571 43.1427 54.5546 43.1427 51.7143C43.1427 48.874 40.8402 46.5714 37.9999 46.5714C35.1596 46.5714 32.857 48.874 32.857 51.7143C32.857 54.5546 35.1596 56.8571 37.9999 56.8571ZM61.1427 51.7143C61.1427 54.5546 58.8402 56.8571 55.9999 56.8571C53.1596 56.8571 50.857 54.5546 50.857 51.7143C50.857 48.874 53.1596 46.5714 55.9999 46.5714C58.8402 46.5714 61.1427 48.874 61.1427 51.7143ZM73.9999 56.8571C76.8402 56.8571 79.1427 54.5546 79.1427 51.7143C79.1427 48.874 76.8402 46.5714 73.9999 46.5714C71.1596 46.5714 68.857 48.874 68.857 51.7143C68.857 54.5546 71.1596 56.8571 73.9999 56.8571Z" fill="white"/>
</g>
<defs>
<clipPath id="clip0_2_227">
<rect width="72" height="72" fill="white" transform="matrix(-1 0 0 1 91.9999 26)"/>
</clipPath>
</defs>
</svg>
