<svg width="111" height="111" viewBox="0 0 111 111" fill="none" xmlns="http://www.w3.org/2000/svg">
<rect width="111" height="111" rx="5" fill="#6ABC45"/>
<g clip-path="url(#clip0_335_12)">
<path d="M28.0884 46.3628C28.0883 41.8363 29.2091 37.3802 31.3507 33.3924C33.4924 29.4046 36.5883 26.0093 40.362 23.5095C44.1356 21.0097 48.4696 19.4834 52.9769 19.0668C57.4842 18.6501 62.0245 19.3561 66.1925 21.1218C70.3604 22.8875 74.0262 25.6578 76.8626 29.1854C79.699 32.7131 81.6176 36.8882 82.4472 41.338C83.2769 45.7879 82.9916 50.3739 81.6169 54.6866C80.2423 58.9994 77.821 62.9045 74.5693 66.0535C73.6419 66.9489 72.9292 67.8809 72.4997 68.8815L69.0185 76.9633C68.8418 77.3729 68.5491 77.7218 68.1765 77.967C67.8038 78.2122 67.3675 78.3429 66.9215 78.343C67.5273 78.343 68.1083 78.5837 68.5367 79.0121C68.9651 79.4405 69.2058 80.0215 69.2058 80.6273C69.2058 81.2331 68.9651 81.8142 68.5367 82.2426C68.1083 82.6709 67.5273 82.9116 66.9215 82.9116C67.5273 82.9116 68.1083 83.1523 68.5367 83.5807C68.9651 84.0091 69.2058 84.5901 69.2058 85.1959C69.2058 85.8017 68.9651 86.3828 68.5367 86.8112C68.1083 87.2395 67.5273 87.4802 66.9215 87.4802L65.8981 89.5224C65.519 90.2811 64.9361 90.9194 64.2147 91.3656C63.4933 91.8118 62.662 92.0484 61.8138 92.0488H49.1862C48.338 92.0484 47.5066 91.8118 46.7853 91.3656C46.0639 90.9194 45.481 90.2811 45.1019 89.5224L44.0785 87.4802C43.4727 87.4802 42.8916 87.2395 42.4632 86.8112C42.0349 86.3828 41.7942 85.8017 41.7942 85.1959C41.7942 84.5901 42.0349 84.0091 42.4632 83.5807C42.8916 83.1523 43.4727 82.9116 44.0785 82.9116C43.4727 82.9116 42.8916 82.6709 42.4632 82.2426C42.0349 81.8142 41.7942 81.2331 41.7942 80.6273C41.7942 80.0215 42.0349 79.4405 42.4632 79.0121C42.8916 78.5837 43.4727 78.343 44.0785 78.343C43.6316 78.3438 43.1944 78.2135 42.8208 77.9683C42.4473 77.723 42.1539 77.3736 41.9769 76.9633L38.5002 68.8769C38.0024 67.809 37.2992 66.8496 36.4307 66.0535C33.7883 63.5004 31.6877 60.4409 30.2543 57.0577C28.821 53.6745 28.0843 50.0371 28.0884 46.3628V46.3628ZM55.5 23.5198C50.9504 23.5191 46.5042 24.8769 42.7313 27.4192C38.9583 29.9615 36.0305 33.5726 34.323 37.7896C32.6155 42.0066 32.2061 46.6374 33.1473 51.0886C34.0885 55.5397 36.3374 59.6084 39.6058 62.7732C40.8074 63.9337 41.9541 65.3499 42.6942 67.0723L45.5861 73.7744H65.423L68.3103 67.0723C69.0504 65.3499 70.1972 63.9337 71.3987 62.7732C74.6674 59.6081 76.9164 55.539 77.8575 51.0874C78.7986 46.6359 78.3888 42.0047 76.6807 37.7875C74.9726 33.5703 72.0441 29.9593 68.2704 27.4173C64.4968 24.8753 60.0499 23.5182 55.5 23.5198V23.5198Z" fill="white"/>
</g>
<path d="M46.6636 49.0679L52.5547 54.959L64.3368 42.3352" stroke="white" stroke-width="4" stroke-linecap="round" stroke-linejoin="round"/>
<defs>
<clipPath id="clip0_335_12">
<rect width="73.0976" height="73.0976" fill="white" transform="translate(18.9512 18.9512)"/>
</clipPath>
</defs>
</svg>
