<svg width="111" height="111" viewBox="0 0 111 111" fill="none" xmlns="http://www.w3.org/2000/svg">
<rect width="111" height="111" rx="5" fill="#6ABC45"/>
<rect x="17" y="29" width="76" height="8" fill="white"/>
<path fill-rule="evenodd" clip-rule="evenodd" d="M91.5847 30.6653C90.9987 30.0792 90.2038 29.75 89.375 29.75H20.625C19.7962 29.75 19.0013 30.0792 18.4153 30.6653C17.8292 31.2513 17.5 32.0462 17.5 32.875V37H15V81H95V37H92.5V32.875C92.5 32.0462 92.1708 31.2513 91.5847 30.6653ZM13.9959 26.2459C15.754 24.4877 18.1386 23.5 20.625 23.5H89.375C91.8614 23.5 94.246 24.4877 96.0041 26.2459C97.7623 28.004 98.75 30.3886 98.75 32.875V86H11.25V32.875C11.25 30.3886 12.2377 28.004 13.9959 26.2459Z" fill="white"/>
<circle cx="18.5" cy="31.5" r="1.5" fill="#6ABC45"/>
<circle cx="24.5" cy="31.5" r="1.5" fill="#6ABC45"/>
<circle cx="30.5" cy="31.5" r="1.5" fill="#6ABC45"/>
</svg>
