<svg width="111" height="111" viewBox="0 0 111 111" fill="none" xmlns="http://www.w3.org/2000/svg">
<rect width="111" height="111" rx="5" fill="#6ABC45"/>
<circle cx="55" cy="56" r="36.5" stroke="white" stroke-width="3"/>
<path d="M70.0001 40.3333C70.8841 40.3333 71.732 40.6845 72.3571 41.3096C72.9822 41.9348 73.3334 42.7826 73.3334 43.6667V50.3333C73.3334 51.2174 72.9822 52.0652 72.3571 52.6904C71.732 53.3155 70.8841 53.6667 70.0001 53.6667H68.2301C66.6667 57 65.6451 57.4033 62.5001 59.5C60.0001 61.1666 52.5001 62.8333 50.8334 58.6666H54.1667C56.8189 58.6666 59.7914 58.8753 61.6667 57C63.5421 55.1246 65.0001 54.6522 65.0001 52V42C65.0001 39.3478 63.9465 36.8043 62.0712 34.9289C60.1958 33.0536 57.6522 32 55.0001 32C52.3479 32 49.8044 33.0536 47.929 34.9289C46.0537 36.8043 45.0001 39.3478 45.0001 42V53.6667H40.0001C39.116 53.6667 38.2682 53.3155 37.6431 52.6904C37.0179 52.0652 36.6667 51.2174 36.6667 50.3333V43.6667C36.6667 42.7826 37.0179 41.9348 37.6431 41.3096C38.2682 40.6845 39.116 40.3333 40.0001 40.3333H41.7701C42.1768 37.1115 43.7452 34.1488 46.181 32.0011C48.6169 29.8535 51.7527 28.6685 55.0001 28.6685C58.2475 28.6685 61.3833 29.8535 63.8191 32.0011C66.2549 34.1488 67.8234 37.1115 68.2301 40.3333H70.0001Z" fill="white"/>
<path d="M45.625 43.875C45.625 49.0438 49.8312 56.1667 55 56.1667C60.1687 56.1667 64.375 49.0438 64.375 43.875C64.375 38.7063 60.1687 34.5 55 34.5C49.8312 34.5 45.625 38.7063 45.625 43.875ZM71.6667 77.4167H73.75V75.3333C73.75 67.2938 67.2062 60.75 59.1667 60.75L55 64.5L50.8333 60.75C42.7917 60.75 36.25 67.2938 36.25 75.3333V77.4167H71.6667Z" fill="white"/>
</svg>
